<svg xmlns="http://www.w3.org/2000/svg" viewBox="0 0 500 500"><defs><style>.cls-1{fill:#eac28c;}.cls-2{fill:#692d12;}.cls-3{fill:#fe882e;}.cls-4{fill:#f26620;}.cls-5{fill:#c44c1e;}.cls-6{fill:#e2582d;}</style></defs><g id="OBJECTS"><path class="cls-1" d="M349.63,453.7l12.17-12.18a6.29,6.29,0,0,1,4.45-1.84h4.15a.73.73,0,0,0,.73-.73v-7.73a.73.73,0,0,0-.73-.73h-6a14.07,14.07,0,0,1-8.14-2.6l-2.86-2a4.18,4.18,0,0,1-.54-6.36l15-15a4.14,4.14,0,0,1,2.95-1.23h6.05a.72.72,0,0,0,.73-.73v-5.69a.73.73,0,0,0-.73-.73h-5.49a4.6,4.6,0,0,1-3.67-1.82l-3.6-4.75a4.6,4.6,0,0,1,.52-6.14l18.87-17.71a.72.72,0,0,0,.23-.53v-5.43A.73.73,0,0,0,383,359h-5.59a3.27,3.27,0,0,1-2.42-1.06l-3.42-3.74a3.29,3.29,0,0,1,.13-4.56l10.65-10.42a8.27,8.27,0,0,1,5.76-2.35.73.73,0,0,0,.73-.73v-7.05a.73.73,0,0,0-.73-.73h-1.34a10.07,10.07,0,0,1-7.39-3.23l-.41-.43a4.84,4.84,0,0,1,0-6.53l7.48-8.25a8.78,8.78,0,0,1,6-2.87l1.81-.1a.71.71,0,0,0,.69-.73c-.06-2.64,0-11.9,4.11-11.9s4.17,9.26,4.11,11.9a.72.72,0,0,0,.69.73l1.82.1a8.82,8.82,0,0,1,6,2.87l7.47,8.25a4.84,4.84,0,0,1,0,6.53l-.41.43a10,10,0,0,1-7.39,3.23H410a.74.74,0,0,0-.74.73v7.05a.73.73,0,0,0,.74.73,8.25,8.25,0,0,1,5.75,2.35l10.65,10.42a3.28,3.28,0,0,1,.13,4.56l-3.42,3.74a3.27,3.27,0,0,1-2.42,1.06H415.1a.73.73,0,0,0-.73.73v5.43a.76.76,0,0,0,.23.53l18.88,17.71a4.6,4.6,0,0,1,.51,6.14l-3.6,4.75a4.58,4.58,0,0,1-3.67,1.82h-5.49a.73.73,0,0,0-.73.73v5.69a.73.73,0,0,0,.73.73h6a4.14,4.14,0,0,1,3,1.23l15,15a4.18,4.18,0,0,1-.54,6.36l-2.86,2a14.05,14.05,0,0,1-8.14,2.6h-6a.73.73,0,0,0-.73.73V439a.73.73,0,0,0,.73.73h4.16a6.28,6.28,0,0,1,4.44,1.84l12.18,12.18a6.28,6.28,0,0,1-1.85,10.16l-13.79,6.27a.73.73,0,0,0-.42.66v26.38a.73.73,0,0,1-.73.73H399.78a.73.73,0,1,0-1.46,0h-31.9a.73.73,0,0,1-.73-.73V470.79a.73.73,0,0,0-.43-.66l-13.79-6.27A6.28,6.28,0,0,1,349.63,453.7Z"/><path class="cls-1" d="M441.08,471.87l7.32-7.56a6.48,6.48,0,0,1,4.63-2,.77.77,0,0,0,.77-.77v-8.74a.77.77,0,0,0-.77-.78h-1.45a4.46,4.46,0,0,1-3.7-2L445.8,447a4.47,4.47,0,0,1,.54-5.66l7.47-7.47a4.5,4.5,0,0,1,3.16-1.31.76.76,0,0,0,.77-.77v-8a.79.79,0,0,0-.29-.61l-4.88-3.81a6.77,6.77,0,0,1-.85-9.91l3.78-4.18a6.79,6.79,0,0,1,5-2.22h1.22a.78.78,0,0,0,.78-.79c0-1.92.05-6.79,2.15-8.09a1.32,1.32,0,0,0,2.32,0c2.11,1.3,2.21,6.17,2.16,8.09a.77.77,0,0,0,.77.79h1.22a6.78,6.78,0,0,1,5,2.22l3.79,4.18a6.79,6.79,0,0,1-.85,9.91l-4.88,3.81a.77.77,0,0,0-.3.61v8a.77.77,0,0,0,.78.77,4.52,4.52,0,0,1,3.16,1.31l7.46,7.47a4.46,4.46,0,0,1,.54,5.66l-2.07,3.08a4.47,4.47,0,0,1-3.71,2h-1.44a.78.78,0,0,0-.78.78v8.74a.78.78,0,0,0,.78.77,6.44,6.44,0,0,1,4.62,2l7.33,7.56a4.83,4.83,0,0,1-1.1,7.56l-6.2,3.49a.79.79,0,0,0-.39.68v15.31a.78.78,0,0,1-.78.78H466.62a.78.78,0,0,1-.78-.78.77.77,0,0,1-.77.78H449.54a.78.78,0,0,1-.77-.78V483.6a.79.79,0,0,0-.39-.68l-6.21-3.49A4.83,4.83,0,0,1,441.08,471.87Z"/><path class="cls-1" d="M474.62,258.57a7.16,7.16,0,0,0-1.43-4.37,10.21,10.21,0,0,0-4.63-3.48c-3.82-1.38-7.75-.3-11.07,1.12s-6.4,3.39-9.64,4.6a16.43,16.43,0,0,1-4.91,1.13,11.94,11.94,0,0,1-4.84-.8c-3.13-1.18-5.73-3.61-8.25-6.06a63.16,63.16,0,0,0-8.11-7.28,21.3,21.3,0,0,0-10.52-3.69,28.08,28.08,0,0,0-11,1.42,32.72,32.72,0,0,0-9.76,5.22,45.69,45.69,0,0,0-7.72,7.82,98.29,98.29,0,0,0-10.89,18.73,361.11,361.11,0,0,0-16.17,39.87C346.36,340,339.9,368,334.94,396.2s-8.55,56.64-12.07,85l4,.48q1.07-9,2.14-18.09h25.62q8.55-58.62,17.1-117.26c3.08-21.15,6.18-42.33,11-63.13,2.63-11.29,5.94-22.79,13.12-31.88a37.47,37.47,0,0,1,10.76-9.28A23.67,23.67,0,0,1,411,242a18.91,18.91,0,0,1,9.5,3.25,61.69,61.69,0,0,1,7.87,7c2.59,2.46,5.35,5.08,9,6.44a14,14,0,0,0,5.66.89,18.36,18.36,0,0,0,5.49-1.3c3.46-1.33,6.49-3.32,9.68-4.69A19.8,19.8,0,0,1,463.1,252a9.5,9.5,0,0,1,4.84.36,8.41,8.41,0,0,1,3.85,2.84,5.49,5.49,0,0,1,1.11,3c-4.21.15-4.17,6.76.14,6.76C476.78,265,477.31,260,474.62,258.57Z"/><path class="cls-1" d="M448.58,198.66a7.23,7.23,0,0,0-1.68-4.28,10.28,10.28,0,0,0-4.82-3.21c-3.89-1.15-7.76.15-11,1.75s-6.2,3.76-9.36,5.15a16.42,16.42,0,0,1-4.84,1.41A12.06,12.06,0,0,1,412,199c-3.19-1-5.92-3.28-8.58-5.58a63.91,63.91,0,0,0-8.51-6.8,21.26,21.26,0,0,0-10.72-3.08,27.81,27.81,0,0,0-10.91,2.05,32.58,32.58,0,0,0-9.44,5.76,45.5,45.5,0,0,0-7.26,8.25c-4.16,6-7.13,12.69-9.8,19.33a361,361,0,0,0-13.87,40.73c-7.73,27.65-12.57,56-15.91,84.45s-5.29,57-7.18,85.57l4.05.25q.54-9.09,1.09-18.18l25.58-1.47q5.19-59,10.36-118c1.86-21.29,3.74-42.62,7.4-63.65,2-11.43,4.63-23.1,11.28-32.59a37.16,37.16,0,0,1,10.2-9.87,23.7,23.7,0,0,1,4.36-.37,19.07,19.07,0,0,1,9.67,2.7,61.69,61.69,0,0,1,8.25,6.53c2.74,2.31,5.64,4.76,9.34,5.92a14.09,14.09,0,0,0,5.7.56,18.62,18.62,0,0,0,5.41-1.61c3.38-1.53,6.29-3.69,9.39-5.24a20.15,20.15,0,0,1,4.79-1.79,9.73,9.73,0,0,1,4.86.08,8.45,8.45,0,0,1,4,2.62,5.5,5.5,0,0,1,1.28,2.91c-4.19.4-3.78,7,.53,6.74C451.1,204.92,451.34,199.92,448.58,198.66Z"/><path class="cls-1" d="M416.27,152.29a7.25,7.25,0,0,0-1.86-4.21,10.28,10.28,0,0,0-5-3c-3.93-1-7.74.47-10.91,2.2s-6,4-9.14,5.52a16.2,16.2,0,0,1-4.77,1.61,11.93,11.93,0,0,1-4.9-.32c-3.23-.87-6.05-3-8.81-5.22a63.38,63.38,0,0,0-8.77-6.45,21.21,21.21,0,0,0-10.84-2.64,27.88,27.88,0,0,0-10.81,2.49,32.44,32.44,0,0,0-9.2,6.15,45,45,0,0,0-6.92,8.54c-3.91,6.19-6.6,13-9,19.71a360.79,360.79,0,0,0-12.19,41.26c-6.59,27.94-10.28,56.47-12.45,85s-3,57.2-3.68,85.79l4.05.09q.17-9.12.36-18.22L317,368.1q2.78-59.18,5.53-118.37c1-21.35,2-42.74,4.8-63.91,1.51-11.49,3.68-23.26,9.94-33A37.46,37.46,0,0,1,347,142.52a24.64,24.64,0,0,1,4.34-.54,18.94,18.94,0,0,1,9.77,2.31,61.93,61.93,0,0,1,8.52,6.18c2.82,2.2,5.82,4.53,9.57,5.53a14,14,0,0,0,5.72.33,18.28,18.28,0,0,0,5.33-1.83c3.32-1.66,6.14-3.94,9.17-5.62a20.08,20.08,0,0,1,4.71-2,9.79,9.79,0,0,1,4.86-.12,8.49,8.49,0,0,1,4.11,2.45,5.49,5.49,0,0,1,1.39,2.86c-4.17.57-3.49,7.14.81,6.72C419,158.44,419.08,153.43,416.27,152.29Z"/><path class="cls-2" d="M177.59,192.1V149.94c-.38,2-2,3.58-3.66,4.84s-3.48,2.42-4.56,4.18c-1.46,2.38-1.38,5.46-.9,8.19a8.83,8.83,0,0,0-9.85,1.25,8.4,8.4,0,0,0-1.87,9.55,6.79,6.79,0,0,0-4.38-2.18,4.59,4.59,0,0,0-4.25,2.13c-1.19,2.14-.07,4.75,0,7.19a7.82,7.82,0,0,1-2,5.42,14.45,14.45,0,0,0-13.78-4.83,11.55,11.55,0,0,1-5.05-9.21,8.24,8.24,0,0,0-2.55,6.21,20.37,20.37,0,0,0,1.46,6.82,6.75,6.75,0,0,0-.58,8.34,7,7,0,0,0,8.2,2.25Z"/><path class="cls-2" d="M116.32,241.1a6.72,6.72,0,0,1-5.29-.87,6.19,6.19,0,0,1-2.17-4,18.34,18.34,0,0,1,.07-4.68,9.6,9.6,0,0,1-2.05-5.75,5.59,5.59,0,0,1,3.05-5,8.62,8.62,0,0,0,3.26,5.77c1.14.91,2.93,1.47,4,.44s.6-2.57.51-3.95a7.33,7.33,0,0,1,3.86-7,6.19,6.19,0,0,1,7.59,1.81,5.09,5.09,0,0,0-4.49,1.59,3.65,3.65,0,0,0,0,4.76c1.17,1.18,3,1.19,4.6,1.75a6.58,6.58,0,0,1,4.24,5.31A29.49,29.49,0,0,0,116.32,241.1Z"/><path class="cls-2" d="M102.08,287.86c-2.12.41-6,.07-7.72-1.23a7.19,7.19,0,0,1-2.55-4.7,20.88,20.88,0,0,1,.09-5.47,11.22,11.22,0,0,1-2.4-6.74,6.51,6.51,0,0,1,3.56-5.88,10.13,10.13,0,0,0,3.82,6.76c1.33,1.07,3.43,1.71,4.65.51s.71-3,.59-4.62a8.62,8.62,0,0,1,4.53-8.22,7.27,7.27,0,0,1,8.89,2.13,6,6,0,0,0-5.27,1.85,4.3,4.3,0,0,0,0,5.59c1.37,1.38,3.58,1.35,5.39,2,5.1,1.93,3.13,6.67,3.46,9.45C111.31,280.82,107.16,281.77,102.08,287.86Z"/><path class="cls-2" d="M76.76,348.33c-2.89.55-8.2.09-10.55-1.68a9.88,9.88,0,0,1-3.49-6.44,29.2,29.2,0,0,1,.13-7.47,15.36,15.36,0,0,1-3.29-9.21c.06-3.31,1.85-6.71,4.88-8a13.79,13.79,0,0,0,5.22,9.24c1.82,1.46,4.68,2.34,6.35.7s1-4.12.81-6.31A11.76,11.76,0,0,1,83,307.88c4.07-2,9.56-.81,12.15,2.91-2.79-.19-5.41.39-7.2,2.53s-2,5.66,0,7.64,4.89,1.84,7.37,2.79c7,2.64,4.42,12.48,4.87,16.27C89.53,342.06,83.7,340,76.76,348.33Z"/><path class="cls-2" d="M26,411.89c-3,.57-8.52.09-11-1.75a10.23,10.23,0,0,1-3.63-6.68,30.72,30.72,0,0,1,.13-7.78,16,16,0,0,1-3.41-9.57c.06-3.44,1.92-7,5.07-8.35a14.3,14.3,0,0,0,5.42,9.6c1.89,1.52,4.87,2.44,6.6.74s1-4.29.85-6.57a12.2,12.2,0,0,1,6.43-11.67c4.23-2.07,9.94-.85,12.62,3-2.89-.2-5.62.4-7.48,2.63s-2.07,5.87,0,7.93,5.07,1.92,7.66,2.9c7.23,2.75,4.59,13,5,16.91C39.24,405.38,33.19,403.23,26,411.89Z"/><polygon class="cls-3" points="177.59 192.11 177.59 497.59 16.38 497.59 17.29 404.34 63.62 405.56 66.59 344.06 113.62 342.14 116.67 321.22 116.67 300.63 122.83 276.03 122.83 249.91 137.59 232.95 137.59 204.7 177.59 192.11"/><path class="cls-2" d="M109.88,368.86H70a7.58,7.58,0,0,0-7.58,7.58v5.35a3.33,3.33,0,0,0,6.65,0v-3a3.31,3.31,0,0,1,3.32-3.32h2.14a3.33,3.33,0,0,0,3.32-3.33,3.23,3.23,0,0,0-.51-1.74h25.21a3.23,3.23,0,0,0-.51,1.74,3.33,3.33,0,0,0,3.32,3.33h2.14a3.32,3.32,0,0,1,3.32,3.32v3a3.33,3.33,0,0,0,6.65,0v-5.35A7.58,7.58,0,0,0,109.88,368.86Z"/><path class="cls-2" d="M60.5,434.1H20.6A7.58,7.58,0,0,0,13,441.67V447a3.33,3.33,0,1,0,6.65,0v-2.95A3.33,3.33,0,0,1,23,440.74h2.13a3.31,3.31,0,0,0,2.68-5.27H53.29A3.31,3.31,0,0,0,56,440.74H58.1a3.33,3.33,0,0,1,3.33,3.33V447a3.33,3.33,0,1,0,6.65,0v-5.35A7.58,7.58,0,0,0,60.5,434.1Z"/><path class="cls-4" d="M60.91,470.31H14.69A1.67,1.67,0,0,0,13,472v7a1.62,1.62,0,0,0,.64,1.28v17.36H61.94V480.22a1.62,1.62,0,0,0,.64-1.28v-7A1.67,1.67,0,0,0,60.91,470.31Z"/><rect class="cls-5" x="11.44" y="475.23" width="48.28" height="22.35"/><rect class="cls-2" x="10.8" y="470.31" width="49.56" height="10.3" rx="0.75"/><rect class="cls-5" x="130.38" y="475.23" width="48.28" height="22.35"/><rect class="cls-2" x="129.74" y="470.31" width="49.56" height="10.3" rx="0.75"/><path class="cls-6" d="M177.59,192.11v14.16h-40c-.33-.42-.64-.86-1-1.28,0,0,0,0,0-.05a28.55,28.55,0,0,1-4.39-10,2.33,2.33,0,0,1,2.26-2.86Z"/><path class="cls-5" d="M177.59,193.6v12.67h-40c-.33-.42-.64-.86-1-1.28,0,0,0,0,0-.05a27.66,27.66,0,0,1-3.44-8.46,2.36,2.36,0,0,1,2.26-2.88Z"/><path class="cls-2" d="M175,198.8c0,2.3-1,4.17-2.17,4.17s-2.16-1.87-2.16-4.17,1-4.16,2.16-4.16S175,196.5,175,198.8Z"/><polygon class="cls-4" points="177.59 209.63 137.59 207.53 137.59 206.27 177.59 206.27 177.59 209.63"/><path class="cls-6" d="M177.59,231.2v18.71H122.83a38.31,38.31,0,0,1-8.26-14.83,3.06,3.06,0,0,1,2.92-3.88Z"/><path class="cls-5" d="M177.59,232.71v17.2H122.83a36.87,36.87,0,0,1-3.28-4.21,37.66,37.66,0,0,1-4-9.11,3.05,3.05,0,0,1,2.93-3.88Z"/><path class="cls-2" d="M175,240.56c0,2.3-1,4.16-2.17,4.16s-2.16-1.86-2.16-4.16,1-4.17,2.16-4.17S175,238.26,175,240.56Z"/><ellipse class="cls-2" cx="143.41" cy="240.56" rx="6.31" ry="4.16"/><polygon class="cls-4" points="177.59 249.91 177.59 253.25 122.83 251.21 122.83 249.91 177.59 249.91"/><path class="cls-6" d="M177.59,279.34V300.7H116.67a51.29,51.29,0,0,1-15.8-14.5c-.68-1-1.3-2-1.9-3a2.61,2.61,0,0,1,2.28-3.87Z"/><path class="cls-5" d="M177.59,280.82V300.7H116.67a51.29,51.29,0,0,1-15.8-14.5c-.33-.48-.64-1-.93-1.5a2.61,2.61,0,0,1,2.29-3.88Z"/><path class="cls-2" d="M175,290c0,2.3-1,4.16-2.17,4.16s-2.16-1.86-2.16-4.16,1-4.17,2.16-4.17S175,287.71,175,290Z"/><path class="cls-2" d="M138.57,290c0,2.3-2.82,4.16-6.31,4.16S126,292.31,126,290s2.82-4.17,6.3-4.17S138.57,287.71,138.57,290Z"/><polygon class="cls-4" points="177.59 300.7 177.59 304.04 116.67 302.03 116.67 300.7 177.59 300.7"/><polygon class="cls-4" points="177.59 333.08 177.59 338.12 114.51 336.04 114.87 333.55 177.59 333.08"/><path class="cls-6" d="M177.59,323.08v9.31a1.87,1.87,0,0,1-1.88,1.86H115.52a2,2,0,0,1-.88-.22,1.85,1.85,0,0,1-1-1.64v-9.31a1.87,1.87,0,0,1,1.88-1.86h60.19a1.84,1.84,0,0,1,1.86,1.75A.2.2,0,0,1,177.59,323.08Z"/><path class="cls-5" d="M177.59,323.08v9.31a1.87,1.87,0,0,1-1.88,1.86H115.52a2,2,0,0,1-.88-.22.24.24,0,0,1,0-.14v-9.3a1.88,1.88,0,0,1,1.86-1.87h60.21a1.68,1.68,0,0,1,.89.25A.2.2,0,0,1,177.59,323.08Z"/><path class="cls-2" d="M175,327.74c0,2.3-1,4.16-2.17,4.16s-2.16-1.86-2.16-4.16,1-4.17,2.16-4.17S175,325.44,175,327.74Z"/><ellipse class="cls-2" cx="126.33" cy="327.74" rx="6.31" ry="4.16"/><path class="cls-2" d="M158.9,334.25v15.32a18.73,18.73,0,0,1-12-12.55,6.87,6.87,0,0,0,6.83,2.27A7,7,0,0,0,158.9,334.25Z"/><path class="cls-2" d="M158.9,348.52v15.31a18.74,18.74,0,0,1-12-12.54,6.89,6.89,0,0,0,6.83,2.26A7,7,0,0,0,158.9,348.52Z"/><path class="cls-2" d="M158.9,362.78v15.31a18.74,18.74,0,0,1-12-12.54,6.87,6.87,0,0,0,6.83,2.26A7,7,0,0,0,158.9,362.78Z"/><path class="cls-2" d="M158.9,377v15.32a18.73,18.73,0,0,1-12-12.55,6.87,6.87,0,0,0,6.83,2.27A7,7,0,0,0,158.9,377Z"/><path class="cls-2" d="M158.9,391.31v15.31a18.74,18.74,0,0,1-12-12.54,6.89,6.89,0,0,0,6.83,2.26A7,7,0,0,0,158.9,391.31Z"/><path class="cls-2" d="M158.9,405.57v15.31a18.74,18.74,0,0,1-12-12.54,6.87,6.87,0,0,0,6.83,2.26A7,7,0,0,0,158.9,405.57Z"/><path class="cls-2" d="M158.9,419.83v15.32a18.73,18.73,0,0,1-12-12.55,6.87,6.87,0,0,0,6.83,2.27A7,7,0,0,0,158.9,419.83Z"/><path class="cls-2" d="M158.9,434.1v15.31a18.74,18.74,0,0,1-12-12.54,6.89,6.89,0,0,0,6.83,2.26A7,7,0,0,0,158.9,434.1Z"/><path class="cls-2" d="M158.9,448.36v15.31a18.74,18.74,0,0,1-12-12.54,6.87,6.87,0,0,0,6.83,2.26A7,7,0,0,0,158.9,448.36Z"/><polygon class="cls-2" points="160.12 470.31 158.9 470.96 158.9 334.25 161.38 334.25 160.12 470.31"/><path class="cls-4" d="M113.64,363.5a2.45,2.45,0,0,1-2.56,2.45l-45.46-1.84,0-1,48-2.48Z"/><path class="cls-6" d="M113.64,342.51v18.13a2.48,2.48,0,0,1-2.48,2.48H65.09a2.49,2.49,0,0,1-1.49-.49,2.43,2.43,0,0,1-1-2V342.51a2.52,2.52,0,0,1,2.51-2.5h46.07a2.51,2.51,0,0,1,2.43,2v0A3,3,0,0,1,113.64,342.51Z"/><path class="cls-5" d="M113.64,342.51v18.13a2.48,2.48,0,0,1-2.48,2.48H65.09a2.49,2.49,0,0,1-1.49-.49,4.21,4.21,0,0,1,0-.51V344A2.47,2.47,0,0,1,66,341.52h46.09a2.44,2.44,0,0,1,1.46.46v0A3,3,0,0,1,113.64,342.51Z"/><path class="cls-2" d="M106.57,351.57c0,2.3-1,4.16-2.17,4.16s-2.17-1.86-2.17-4.16,1-4.17,2.17-4.17S106.57,349.27,106.57,351.57Z"/><path class="cls-2" d="M82.12,351.57c0,2.3-2.83,4.16-6.31,4.16s-6.31-1.86-6.31-4.16,2.83-4.17,6.31-4.17S82.12,349.27,82.12,351.57Z"/><path class="cls-4" d="M65,427.16a2.45,2.45,0,0,1-2.56,2.45l-45.38-1.89v-.83L65,424.3Z"/><path class="cls-6" d="M65,405.14v18.32a3.6,3.6,0,0,1-3.59,3.61H15.94a3.65,3.65,0,0,1-3.59-3.61V405.14a3.58,3.58,0,0,1,3.59-3.59H61.41A3.57,3.57,0,0,1,64.8,404,3.24,3.24,0,0,1,65,405.14Z"/><path class="cls-5" d="M65,405.14v18.32a3.6,3.6,0,0,1-3.59,3.61H15.94a3.43,3.43,0,0,1-2.42-1,3.24,3.24,0,0,1-.2-1.13V406.64a3.58,3.58,0,0,1,3.59-3.59H62.36a3.54,3.54,0,0,1,2.44,1A3.24,3.24,0,0,1,65,405.14Z"/><ellipse class="cls-2" cx="55.03" cy="414.3" rx="2.17" ry="4.16"/><path class="cls-2" d="M32.75,414.3c0,2.3-2.82,4.17-6.31,4.17s-6.3-1.87-6.3-4.17,2.82-4.16,6.3-4.16S32.75,412,32.75,414.3Z"/><path class="cls-2" d="M256.84,192.1V149.94c.37,2,2,3.58,3.66,4.84s3.48,2.42,4.56,4.18c1.46,2.38,1.38,5.46.9,8.19a8.83,8.83,0,0,1,9.85,1.25,8.4,8.4,0,0,1,1.87,9.55,6.79,6.79,0,0,1,4.38-2.18,4.59,4.59,0,0,1,4.25,2.13c1.19,2.14.07,4.75,0,7.19a7.82,7.82,0,0,0,2,5.42,14.45,14.45,0,0,1,13.78-4.83,11.55,11.55,0,0,0,5.05-9.21,8.24,8.24,0,0,1,2.55,6.21,20.37,20.37,0,0,1-1.46,6.82,6.75,6.75,0,0,1,.58,8.34,7,7,0,0,1-8.2,2.25Z"/><path class="cls-2" d="M318.11,241.1a6.69,6.69,0,0,0,5.28-.87,6.16,6.16,0,0,0,2.18-4,18.34,18.34,0,0,0-.07-4.68,9.6,9.6,0,0,0,2.05-5.75,5.59,5.59,0,0,0-3.05-5,8.62,8.62,0,0,1-3.26,5.77c-1.14.91-2.93,1.47-4,.44s-.6-2.57-.51-3.95a7.33,7.33,0,0,0-3.86-7,6.19,6.19,0,0,0-7.59,1.81,5.09,5.09,0,0,1,4.49,1.59,3.65,3.65,0,0,1,0,4.76c-1.17,1.18-3,1.19-4.6,1.75a6.58,6.58,0,0,0-4.24,5.31A29.49,29.49,0,0,1,318.11,241.1Z"/><path class="cls-2" d="M332.35,287.86c2.12.41,6,.07,7.72-1.23a7.19,7.19,0,0,0,2.55-4.7,20.88,20.88,0,0,0-.09-5.47,11.22,11.22,0,0,0,2.4-6.74,6.51,6.51,0,0,0-3.56-5.88,10.13,10.13,0,0,1-3.82,6.76c-1.33,1.07-3.43,1.71-4.65.51s-.71-3-.59-4.62a8.62,8.62,0,0,0-4.53-8.22,7.27,7.27,0,0,0-8.89,2.13,6,6,0,0,1,5.27,1.85,4.3,4.3,0,0,1,0,5.59c-1.37,1.38-3.58,1.35-5.39,2-5.1,1.93-3.13,6.67-3.46,9.45C323.12,280.82,327.27,281.77,332.35,287.86Z"/><path class="cls-2" d="M357.67,348.33c2.89.55,8.2.09,10.55-1.68a9.88,9.88,0,0,0,3.49-6.44,29.2,29.2,0,0,0-.13-7.47,15.29,15.29,0,0,0,3.28-9.21c-.05-3.31-1.84-6.71-4.87-8a13.79,13.79,0,0,1-5.22,9.24c-1.82,1.46-4.68,2.34-6.35.7s-1-4.12-.81-6.31a11.76,11.76,0,0,0-6.19-11.24c-4.07-2-9.56-.81-12.15,2.91,2.79-.19,5.41.39,7.2,2.53s2,5.66,0,7.64-4.89,1.84-7.37,2.79c-7,2.64-4.42,12.48-4.87,16.27C344.9,342.06,350.73,340,357.67,348.33Z"/><path class="cls-2" d="M408.46,411.89c3,.57,8.52.09,11-1.75a10.23,10.23,0,0,0,3.63-6.68,30.72,30.72,0,0,0-.13-7.78,16,16,0,0,0,3.41-9.57c-.06-3.44-1.92-7-5.07-8.35a14.3,14.3,0,0,1-5.42,9.6c-1.89,1.52-4.87,2.44-6.6.74s-1-4.29-.85-6.57A12.2,12.2,0,0,0,402,369.86c-4.23-2.07-9.94-.85-12.62,3,2.89-.2,5.62.4,7.48,2.63s2.07,5.87,0,7.93-5.07,1.92-7.66,2.9c-7.23,2.75-4.59,13-5.06,16.91C395.19,405.38,401.24,403.23,408.46,411.89Z"/><polygon class="cls-3" points="256.84 192.11 256.84 497.59 418.05 497.59 417.14 404.34 370.81 405.56 367.84 344.06 320.81 342.14 317.76 321.22 317.76 300.63 311.6 276.03 311.6 249.91 296.84 232.95 296.84 204.7 256.84 192.11"/><path class="cls-2" d="M324.55,368.86h39.89a7.58,7.58,0,0,1,7.58,7.58v5.35a3.33,3.33,0,0,1-6.65,0v-3a3.31,3.31,0,0,0-3.32-3.32h-2.14a3.33,3.33,0,0,1-3.32-3.33,3.23,3.23,0,0,1,.51-1.74H331.89a3.23,3.23,0,0,1,.51,1.74,3.33,3.33,0,0,1-3.32,3.33h-2.14a3.32,3.32,0,0,0-3.32,3.32v3a3.33,3.33,0,0,1-6.65,0v-5.35A7.58,7.58,0,0,1,324.55,368.86Z"/><path class="cls-2" d="M373.93,434.1h39.9a7.58,7.58,0,0,1,7.58,7.57V447a3.33,3.33,0,1,1-6.65,0v-2.95a3.33,3.33,0,0,0-3.33-3.33H409.3a3.31,3.31,0,0,1-2.68-5.27H381.14a3.31,3.31,0,0,1-2.68,5.27h-2.13a3.33,3.33,0,0,0-3.33,3.33V447a3.33,3.33,0,1,1-6.65,0v-5.35A7.58,7.58,0,0,1,373.93,434.1Z"/><path class="cls-4" d="M373.52,470.31h46.22a1.67,1.67,0,0,1,1.67,1.67v7a1.62,1.62,0,0,1-.64,1.28v17.36H372.49V480.22a1.6,1.6,0,0,1-.64-1.28v-7A1.67,1.67,0,0,1,373.52,470.31Z"/><rect class="cls-5" x="374.71" y="475.23" width="48.28" height="22.35" transform="translate(797.7 972.81) rotate(180)"/><rect class="cls-2" x="374.07" y="470.31" width="49.56" height="10.3" rx="0.75" transform="translate(797.7 950.92) rotate(180)"/><rect class="cls-5" x="255.77" y="475.23" width="48.28" height="22.35" transform="translate(559.82 972.81) rotate(180)"/><rect class="cls-2" x="255.13" y="470.31" width="49.56" height="10.3" rx="0.75" transform="translate(559.82 950.92) rotate(180)"/><path class="cls-6" d="M256.84,192.11v14.16h40c.33-.42.64-.86,1-1.28,0,0,0,0,0-.05a28.55,28.55,0,0,0,4.39-10,2.33,2.33,0,0,0-2.26-2.86Z"/><path class="cls-5" d="M256.84,193.6v12.67h40c.33-.42.64-.86,1-1.28,0,0,0,0,0-.05a27.66,27.66,0,0,0,3.44-8.46A2.36,2.36,0,0,0,299,193.6Z"/><path class="cls-2" d="M259.44,198.8c0,2.3,1,4.17,2.17,4.17s2.16-1.87,2.16-4.17-1-4.16-2.16-4.16S259.44,196.5,259.44,198.8Z"/><polygon class="cls-4" points="256.84 209.63 296.84 207.53 296.84 206.27 256.84 206.27 256.84 209.63"/><path class="cls-6" d="M256.84,231.2v18.71H311.6a35.69,35.69,0,0,0,3.27-4.21,36.91,36.91,0,0,0,5-10.62,3.06,3.06,0,0,0-2.92-3.88Z"/><path class="cls-5" d="M256.84,232.71v17.2H311.6a35.69,35.69,0,0,0,3.27-4.21,37.3,37.3,0,0,0,4-9.11,3.05,3.05,0,0,0-2.93-3.88Z"/><path class="cls-2" d="M259.44,240.56c0,2.3,1,4.16,2.17,4.16s2.16-1.86,2.16-4.16-1-4.17-2.16-4.17S259.44,238.26,259.44,240.56Z"/><ellipse class="cls-2" cx="291.02" cy="240.56" rx="6.31" ry="4.16"/><polygon class="cls-4" points="256.84 249.91 256.84 253.25 311.6 251.21 311.6 249.91 256.84 249.91"/><path class="cls-6" d="M256.84,279.34V300.7h60.92a51.29,51.29,0,0,0,15.8-14.5c.68-1,1.3-2,1.9-3a2.61,2.61,0,0,0-2.28-3.87Z"/><path class="cls-5" d="M256.84,280.82V300.7h60.92a51.29,51.29,0,0,0,15.8-14.5c.33-.48.64-1,.93-1.5a2.61,2.61,0,0,0-2.29-3.88Z"/><path class="cls-2" d="M259.44,290c0,2.3,1,4.16,2.17,4.16s2.16-1.86,2.16-4.16-1-4.17-2.16-4.17S259.44,287.71,259.44,290Z"/><path class="cls-2" d="M295.86,290c0,2.3,2.82,4.16,6.31,4.16s6.3-1.86,6.3-4.16-2.82-4.17-6.3-4.17S295.86,287.71,295.86,290Z"/><polygon class="cls-4" points="256.84 300.7 256.84 304.04 317.76 302.03 317.76 300.7 256.84 300.7"/><polygon class="cls-4" points="256.84 333.08 256.84 338.12 319.92 336.04 319.56 333.55 256.84 333.08"/><path class="cls-6" d="M256.84,323.08v9.31a1.87,1.87,0,0,0,1.88,1.86h60.19a2,2,0,0,0,.88-.22,1.85,1.85,0,0,0,1-1.64v-9.31a1.87,1.87,0,0,0-1.88-1.86H258.72a1.84,1.84,0,0,0-1.86,1.75A.2.2,0,0,0,256.84,323.08Z"/><path class="cls-5" d="M256.84,323.08v9.31a1.87,1.87,0,0,0,1.88,1.86h60.19a2,2,0,0,0,.88-.22.24.24,0,0,0,0-.14v-9.3a1.88,1.88,0,0,0-1.86-1.87H257.75a1.68,1.68,0,0,0-.89.25A.2.2,0,0,0,256.84,323.08Z"/><path class="cls-2" d="M259.44,327.74c0,2.3,1,4.16,2.17,4.16s2.16-1.86,2.16-4.16-1-4.17-2.16-4.17S259.44,325.44,259.44,327.74Z"/><ellipse class="cls-2" cx="308.1" cy="327.74" rx="6.31" ry="4.16"/><path class="cls-2" d="M275.53,334.25v15.32a18.73,18.73,0,0,0,12-12.55,6.87,6.87,0,0,1-6.83,2.27A7,7,0,0,1,275.53,334.25Z"/><path class="cls-2" d="M275.53,348.52v15.31a18.74,18.74,0,0,0,12-12.54,6.89,6.89,0,0,1-6.83,2.26A7,7,0,0,1,275.53,348.52Z"/><path class="cls-2" d="M275.53,362.78v15.31a18.74,18.74,0,0,0,12-12.54,6.87,6.87,0,0,1-6.83,2.26A7,7,0,0,1,275.53,362.78Z"/><path class="cls-2" d="M275.53,377v15.32a18.73,18.73,0,0,0,12-12.55,6.87,6.87,0,0,1-6.83,2.27A7,7,0,0,1,275.53,377Z"/><path class="cls-2" d="M275.53,391.31v15.31a18.74,18.74,0,0,0,12-12.54,6.89,6.89,0,0,1-6.83,2.26A7,7,0,0,1,275.53,391.31Z"/><path class="cls-2" d="M275.53,405.57v15.31a18.74,18.74,0,0,0,12-12.54,6.87,6.87,0,0,1-6.83,2.26A7,7,0,0,1,275.53,405.57Z"/><path class="cls-2" d="M275.53,419.83v15.32a18.73,18.73,0,0,0,12-12.55,6.87,6.87,0,0,1-6.83,2.27A7,7,0,0,1,275.53,419.83Z"/><path class="cls-2" d="M275.53,434.1v15.31a18.74,18.74,0,0,0,12-12.54,6.89,6.89,0,0,1-6.83,2.26A7,7,0,0,1,275.53,434.1Z"/><path class="cls-2" d="M275.53,448.36v15.31a18.74,18.74,0,0,0,12-12.54,6.87,6.87,0,0,1-6.83,2.26A7,7,0,0,1,275.53,448.36Z"/><polygon class="cls-2" points="274.31 470.31 275.53 470.96 275.53 334.25 273.05 334.25 274.31 470.31"/><path class="cls-4" d="M320.79,363.5a2.45,2.45,0,0,0,2.56,2.45l45.45-1.84,0-1-48-2.48Z"/><path class="cls-6" d="M320.79,342.51v18.13a2.48,2.48,0,0,0,2.48,2.48h46.07a2.49,2.49,0,0,0,1.49-.49,2.43,2.43,0,0,0,1-2V342.51a2.52,2.52,0,0,0-2.51-2.5H323.27a2.51,2.51,0,0,0-2.43,2v0A3,3,0,0,0,320.79,342.51Z"/><path class="cls-5" d="M320.79,342.51v18.13a2.48,2.48,0,0,0,2.48,2.48h46.07a2.49,2.49,0,0,0,1.49-.49,4.21,4.21,0,0,0,0-.51V344a2.47,2.47,0,0,0-2.48-2.48H322.3a2.44,2.44,0,0,0-1.46.46v0A3,3,0,0,0,320.79,342.51Z"/><path class="cls-2" d="M327.86,351.57c0,2.3,1,4.16,2.17,4.16s2.17-1.86,2.17-4.16-1-4.17-2.17-4.17S327.86,349.27,327.86,351.57Z"/><path class="cls-2" d="M352.31,351.57c0,2.3,2.83,4.16,6.31,4.16s6.31-1.86,6.31-4.16-2.83-4.17-6.31-4.17S352.31,349.27,352.31,351.57Z"/><path class="cls-4" d="M369.43,427.16a2.45,2.45,0,0,0,2.56,2.45l45.38-1.89v-.83l-47.93-2.59Z"/><path class="cls-6" d="M369.43,405.14v18.32a3.6,3.6,0,0,0,3.59,3.61h45.47a3.65,3.65,0,0,0,3.59-3.61V405.14a3.58,3.58,0,0,0-3.59-3.59H373a3.57,3.57,0,0,0-3.39,2.46A3.24,3.24,0,0,0,369.43,405.14Z"/><path class="cls-5" d="M369.43,405.14v18.32a3.6,3.6,0,0,0,3.59,3.61h45.47a3.44,3.44,0,0,0,2.42-1,3.24,3.24,0,0,0,.2-1.13V406.64a3.58,3.58,0,0,0-3.59-3.59H372.07a3.54,3.54,0,0,0-2.44,1A3.24,3.24,0,0,0,369.43,405.14Z"/><ellipse class="cls-2" cx="379.4" cy="414.3" rx="2.17" ry="4.16"/><path class="cls-2" d="M401.68,414.3c0,2.3,2.82,4.17,6.31,4.17s6.3-1.87,6.3-4.17-2.82-4.16-6.3-4.16S401.68,412,401.68,414.3Z"/></g></svg>